<?xml version="1.0" encoding="UTF-8" standalone="no"?>
<svg
   xmlns:dc="http://purl.org/dc/elements/1.1/"
   xmlns:cc="http://creativecommons.org/ns#"
   xmlns:rdf="http://www.w3.org/1999/02/22-rdf-syntax-ns#"
   xmlns:svg="http://www.w3.org/2000/svg"
   xmlns="http://www.w3.org/2000/svg"
   xmlns:sodipodi="http://sodipodi.sourceforge.net/DTD/sodipodi-0.dtd"
   xmlns:inkscape="http://www.inkscape.org/namespaces/inkscape"
   id="svg1534"
   version="1.1"
   viewBox="0 0 100.31031 100.31083"
   height="100.31083mm"
   width="100.31031mm"
   sodipodi:docname="cross-icon.svg"
   inkscape:version="0.92.4 5da689c313, 2019-01-14">
  <sodipodi:namedview
     pagecolor="#ffffff"
     bordercolor="#666666"
     borderopacity="1"
     objecttolerance="10"
     gridtolerance="10"
     guidetolerance="10"
     inkscape:pageopacity="0"
     inkscape:pageshadow="2"
     inkscape:window-width="960"
     inkscape:window-height="1016"
     id="namedview821"
     showgrid="false"
     inkscape:zoom="0.93432166"
     inkscape:cx="126.67034"
     inkscape:cy="349.42252"
     inkscape:window-x="0"
     inkscape:window-y="27"
     inkscape:window-maximized="0"
     inkscape:current-layer="layer2"
     fit-margin-top="0"
     fit-margin-left="0"
     fit-margin-right="0"
     fit-margin-bottom="0" />
  <defs
     id="defs1528" />
  <metadata
     id="metadata1531">
    <rdf:RDF>
      <cc:Work
         rdf:about="">
        <dc:format>image/svg+xml</dc:format>
        <dc:type
           rdf:resource="http://purl.org/dc/dcmitype/StillImage" />
        <dc:title></dc:title>
      </cc:Work>
    </rdf:RDF>
  </metadata>
  <g
     transform="translate(111.76523,-93.953301)"
     style="display:inline"
     id="layer1" />
  <g
     transform="translate(111.76523,-93.953301)"
     id="layer2"
     style="stroke:#1a1a1a">
    <path
       id="path152"
       transform="matrix(0.26458333,0,0,0.26458333,-144.00892,60.008942)"
       d="m 202.32422,138.85742 c -8.05111,0 -14.85012,2.77388 -20.4961,8.40625 l -40.99218,40.99024 c -5.63237,5.63236 -8.40625,12.4503 -8.40625,20.49804 0,8.05111 2.77388,14.85024 8.40625,20.4961 l 88.60937,88.60937 -88.60937,88.60742 c -5.63237,5.54778 -8.40625,12.44843 -8.40625,20.4961 0,8.05111 2.77388,14.85016 8.40625,20.49609 l 40.99218,40.99414 c 5.63245,5.63237 12.43149,8.40625 20.4961,8.40625 8.05111,0 14.85023,-2.77388 20.49609,-8.40625 l 88.60742,-88.60937 88.60938,88.60937 c 5.6324,5.63237 12.45034,8.40625 20.49805,8.40625 8.05103,0 14.85016,-2.77388 20.49609,-8.40625 l 40.99023,-40.99414 c 5.63237,-5.54778 8.40625,-12.43141 8.40625,-20.49609 0,-8.05111 -2.77388,-14.85024 -8.40625,-20.4961 l -88.60742,-88.60742 88.60742,-88.60937 c 5.63237,-5.54778 8.40625,-12.43149 8.40625,-20.4961 0,-8.05111 -2.77388,-14.85211 -8.40625,-20.49804 l -40.99023,-40.99024 c -5.63237,-5.5478 -12.44842,-8.40625 -20.49609,-8.40625 -8.05108,0 -14.86901,2.77388 -20.49805,8.40625 l -88.60938,88.60742 -88.60742,-88.60742 c -5.63236,-5.5478 -12.44842,-8.40625 -20.49609,-8.40625 z"
       style="display:inline;fill:none;fill-opacity:1;stroke:#FFFFFF;stroke-width:21.12755966;stroke-miterlimit:4;stroke-dasharray:none"
       inkscape:connector-curvature="0" />
  </g>
</svg>
