<?xml version="1.0" encoding="UTF-8" standalone="no"?>
<!-- Created with Inkscape (http://www.inkscape.org/) -->

<svg
   xmlns:dc="http://purl.org/dc/elements/1.1/"
   xmlns:cc="http://creativecommons.org/ns#"
   xmlns:rdf="http://www.w3.org/1999/02/22-rdf-syntax-ns#"
   xmlns:svg="http://www.w3.org/2000/svg"
   xmlns="http://www.w3.org/2000/svg"
   xmlns:sodipodi="http://sodipodi.sourceforge.net/DTD/sodipodi-0.dtd"
   xmlns:inkscape="http://www.inkscape.org/namespaces/inkscape"
   width="100"
   height="100"
   viewBox="0 0 26.458333 26.458333"
   version="1.1"
   id="svg1464"
   inkscape:version="0.92.4 5da689c313, 2019-01-14"
   sodipodi:docname="logo-text.svg">
  <defs
     id="defs1458">
    <inkscape:perspective
       sodipodi:type="inkscape:persp3d"
       inkscape:vp_x="0 : 13.229166 : 1"
       inkscape:vp_y="0 : 1000 : 0"
       inkscape:vp_z="26.458333 : 13.229166 : 1"
       inkscape:persp3d-origin="13.229166 : 8.8194443 : 1"
       id="perspective2032" />
  </defs>
  <sodipodi:namedview
     id="base"
     pagecolor="#ffffff"
     bordercolor="#666666"
     borderopacity="1.0"
     inkscape:pageopacity="0.0"
     inkscape:pageshadow="2"
     inkscape:zoom="5.6"
     inkscape:cx="27.598238"
     inkscape:cy="46.062629"
     inkscape:document-units="mm"
     inkscape:current-layer="flowRoot2009"
     showgrid="false"
     units="px"
     inkscape:window-width="1920"
     inkscape:window-height="1016"
     inkscape:window-x="0"
     inkscape:window-y="27"
     inkscape:window-maximized="1" />
  <metadata
     id="metadata1461">
    <rdf:RDF>
      <cc:Work
         rdf:about="">
        <dc:format>image/svg+xml</dc:format>
        <dc:type
           rdf:resource="http://purl.org/dc/dcmitype/StillImage" />
        <dc:title></dc:title>
      </cc:Work>
    </rdf:RDF>
  </metadata>
  <g
     inkscape:label="Layer 1"
     inkscape:groupmode="layer"
     id="layer1"
     transform="translate(0,-270.54167)">
    <g
       aria-label="mimiko"
       transform="matrix(0.5403211,0,0,0.5403211,-1.9021598,260.96547)"
       style="font-style:normal;font-variant:normal;font-weight:normal;font-stretch:normal;font-size:12px;line-height:1.25;font-family:ari;-inkscape-font-specification:ari;letter-spacing:0px;word-spacing:0px;fill:#1a1a1a;fill-opacity:1;stroke:#1a1a1a"
       id="flowRoot2009">
      <path
         d="m 9.4654014,39.983852 h 0.7794756 l 0.08259,0.495561 q 0.351023,-0.634937 1.037582,-0.634937 0.738179,0 1.027256,0.727855 0.351023,-0.727855 1.104688,-0.727855 0.702045,0 0.980798,0.526533 0.283913,0.54202 0.283913,2.044189 v 3.350198 h -0.86723 v -3.308901 q 0,-0.650424 -0.03613,-1.006608 -0.03098,-0.356185 -0.103242,-0.526534 -0.129052,-0.283915 -0.511047,-0.283915 -0.392319,0 -0.54202,0.309725 -0.08776,0.180674 -0.12389,0.526535 -0.03613,0.34586 -0.03613,0.980797 v 3.308901 h -0.867237 v -3.308901 q 0,-0.624614 -0.03613,-0.991122 -0.03613,-0.366509 -0.113566,-0.536858 -0.139376,-0.289077 -0.521371,-0.289077 -0.381995,0 -0.521372,0.304564 -0.08259,0.175511 -0.118728,0.536857 -0.03613,0.356185 -0.03613,0.975636 v 3.308901 H 9.4654064 Z"
         style="font-style:normal;font-variant:normal;font-weight:normal;font-stretch:normal;font-family:Hack;-inkscape-font-specification:Hack;fill:#1a1a1a;stroke:#1a1a1a;stroke-width:0.88099718"
         id="path2017"
         inkscape:connector-curvature="0" />
      <path
         d="m 17.967368,38.935947 q -0.154862,0 -0.154862,-0.154862 v -0.893042 q 0,-0.154863 0.154862,-0.154863 h 0.743342 q 0.154862,0 0.154862,0.154863 v 0.893042 q 0,0.154862 -0.154862,0.154862 z m 1.734463,6.870746 q -0.851745,0 -1.321495,-0.547182 -0.464589,-0.552344 -0.464589,-1.548628 v -2.98369 h -1.264712 v -0.743341 h 2.214537 v 3.727031 q 0,0.629776 0.237457,0.96015 0.237456,0.330374 0.69172,0.330374 H 20.9046 v 0.805286 z"
         style="font-style:normal;font-variant:normal;font-weight:normal;font-stretch:normal;font-family:Hack;-inkscape-font-specification:Hack;fill:#1a1a1a;stroke:#1a1a1a;stroke-width:0.88099718"
         id="path2019"
         inkscape:connector-curvature="0" />
      <path
         d="m 22.195122,39.983852 h 0.779477 l 0.08259,0.495561 q 0.351022,-0.634937 1.03758,-0.634937 0.73818,0 1.027257,0.727855 0.351022,-0.727855 1.104688,-0.727855 0.702044,0 0.980797,0.526533 0.283916,0.54202 0.283916,2.044189 v 3.350198 h -0.867229 v -3.308901 q 0,-0.650424 -0.03614,-1.006608 -0.03098,-0.356185 -0.103242,-0.526534 -0.129052,-0.283915 -0.511047,-0.283915 -0.392319,0 -0.54202,0.309725 -0.08776,0.180674 -0.12389,0.526535 -0.03614,0.34586 -0.03614,0.980797 v 3.308901 H 24.40449 v -3.308901 q 0,-0.624614 -0.03614,-0.991122 -0.03614,-0.366509 -0.113566,-0.536858 -0.139376,-0.289077 -0.521371,-0.289077 -0.381995,0 -0.521372,0.304564 -0.08259,0.175511 -0.118727,0.536857 -0.03614,0.356185 -0.03614,0.975636 v 3.308901 h -0.86207 z"
         style="font-style:normal;font-variant:normal;font-weight:normal;font-stretch:normal;font-family:Hack;-inkscape-font-specification:Hack;fill:#1a1a1a;stroke:#1a1a1a;stroke-width:0.88099718"
         id="path2021"
         inkscape:connector-curvature="0" />
      <path
         d="m 30.69709,38.935947 q -0.154863,0 -0.154863,-0.154862 v -0.893042 q 0,-0.154863 0.154863,-0.154863 h 0.743341 q 0.154862,0 0.154862,0.154863 v 0.893042 q 0,0.154862 -0.154862,0.154862 z m 1.734463,6.870746 q -0.851746,0 -1.321496,-0.547182 -0.464589,-0.552344 -0.464589,-1.548628 v -2.98369 h -1.264712 v -0.743341 h 2.214537 v 3.727031 q 0,0.629776 0.237457,0.96015 0.237456,0.330374 0.691721,0.330374 h 1.109849 v 0.805286 z"
         style="font-style:normal;font-variant:normal;font-weight:normal;font-stretch:normal;font-family:Hack;-inkscape-font-specification:Hack;fill:#1a1a1a;stroke:#1a1a1a;stroke-width:0.88099718"
         id="path2023"
         inkscape:connector-curvature="0" />
      <path
         d="m 35.528808,37.73318 h 0.980798 v 4.651046 l 2.493291,-2.400374 h 1.156308 l -2.276482,2.178403 2.632667,3.603141 h -1.161471 l -2.137106,-2.98369 -0.707207,0.665911 v 2.317779 h -0.980798 z"
         style="font-style:normal;font-variant:normal;font-weight:normal;font-stretch:normal;font-family:Hack;-inkscape-font-specification:Hack;fill:#1a1a1a;stroke:#1a1a1a;stroke-width:0.88099718"
         id="path2025"
         inkscape:connector-curvature="0" />
      <path
         d="m 43.917209,45.915097 q -1.207929,0 -1.848029,-0.779476 -0.634937,-0.784639 -0.634937,-2.250672 0,-1.471197 0.640099,-2.255835 0.6401,-0.784638 1.837705,-0.784638 1.197606,0 1.832543,0.784638 0.6401,0.779476 0.6401,2.260996 0,1.471197 -0.634938,2.250673 -0.634937,0.774314 -1.832543,0.774314 z m -0.0052,-0.805286 q 0.707207,0 1.08404,-0.578154 0.381994,-0.578155 0.381994,-1.657033 0,-1.073715 -0.381994,-1.646707 -0.376833,-0.578154 -1.08404,-0.578154 -0.712369,0 -1.094364,0.578154 -0.376832,0.572992 -0.376832,1.646707 0,1.078878 0.381995,1.657033 0.381995,0.578154 1.089201,0.578154 z"
         style="font-style:normal;font-variant:normal;font-weight:normal;font-stretch:normal;font-family:Hack;-inkscape-font-specification:Hack;fill:#1a1a1a;stroke:#1a1a1a;stroke-width:0.88099718"
         id="path2027"
         inkscape:connector-curvature="0" />
      <path
         style="fill:none;stroke:#000000;stroke-width:0.48967797px;stroke-linecap:butt;stroke-linejoin:miter;stroke-opacity:1"
         d="M 4.3948497,18.685032 V 65.554208 H 51.526353 V 18.59759 Z"
         id="path2050"
         inkscape:connector-curvature="0" />
    </g>
  </g>
</svg>
