<?xml version="1.0" encoding="UTF-8" standalone="no"?>
<svg
   xmlns:dc="http://purl.org/dc/elements/1.1/"
   xmlns:cc="http://creativecommons.org/ns#"
   xmlns:rdf="http://www.w3.org/1999/02/22-rdf-syntax-ns#"
   xmlns:svg="http://www.w3.org/2000/svg"
   xmlns="http://www.w3.org/2000/svg"
   xmlns:sodipodi="http://sodipodi.sourceforge.net/DTD/sodipodi-0.dtd"
   xmlns:inkscape="http://www.inkscape.org/namespaces/inkscape"
   id="svg8"
   version="1.1"
   viewBox="0 0 45.903393 11.06311"
   height="11.06311mm"
   width="45.903393mm"
   sodipodi:docname="text-logo.svg"
   inkscape:version="0.92.4 5da689c313, 2019-01-14">
  <sodipodi:namedview
     pagecolor="#ffffff"
     bordercolor="#666666"
     borderopacity="1"
     objecttolerance="10"
     gridtolerance="10"
     guidetolerance="10"
     inkscape:pageopacity="0"
     inkscape:pageshadow="2"
     inkscape:window-width="1920"
     inkscape:window-height="1016"
     id="namedview5085"
     showgrid="false"
     inkscape:zoom="7.6314257"
     inkscape:cx="86.746569"
     inkscape:cy="20.906665"
     inkscape:window-x="0"
     inkscape:window-y="27"
     inkscape:window-maximized="1"
     inkscape:current-layer="svg8" />
  <defs
     id="defs2">
    <filter
       id="filter1754"
       style="color-interpolation-filters:sRGB">
      <feColorMatrix
         id="feColorMatrix1750"
         result="colormatrix"
         in="SourceGraphic"
         values="1 0 0 0 0 0 1 0 0 0 0 0 1 0 0 -1 0.5 0.5 10 0 " />
      <feComposite
         id="feComposite1752"
         result="composite1"
         operator="in"
         in2="SourceGraphic"
         in="colormatrix" />
    </filter>
  </defs>
  <metadata
     id="metadata5">
    <rdf:RDF>
      <cc:Work
         rdf:about="">
        <dc:format>image/svg+xml</dc:format>
        <dc:type
           rdf:resource="http://purl.org/dc/dcmitype/StillImage" />
        <dc:title />
      </cc:Work>
    </rdf:RDF>
  </metadata>
  <g
     transform="translate(-7.5133773,-94.725693)"
     id="layer1"
     style="fill:#1a1a1a">
    <g
       id="flowRoot815"
       style="font-style:normal;font-variant:normal;font-weight:normal;font-stretch:normal;font-size:12px;line-height:1.25;font-family:ari;-inkscape-font-specification:ari;letter-spacing:0px;word-spacing:0px;fill:#1a1a1a;fill-opacity:1;stroke:none"
       transform="scale(0.26458333)"
       aria-label="mimiko">
      <path
         id="path1798"
         style="font-style:normal;font-variant:normal;font-weight:normal;font-stretch:normal;font-size:53.33333588px;font-family:'Fredoka One';-inkscape-font-specification:'Fredoka One';fill:#1a1a1a"
         d="m 37.570339,374.97837 q 2.506667,-3.78667 6.026667,-3.78667 5.44,0 8.106667,4.64 0.586667,-0.8 1.386667,-1.65333 0.853333,-0.90667 2.666667,-1.92 1.813333,-1.06667 3.733333,-1.06667 4.266667,0 7.146667,3.30667 2.88,3.25333 2.88,10.82667 v 9.33333 q 0,1.22667 -0.106666,1.86667 -0.05333,0.58666 -0.48,1.38666 -0.693334,1.44 -4.106667,1.44 -3.36,0 -4.106667,-1.49333 -0.373333,-0.8 -0.48,-1.38667 -0.05333,-0.64 -0.05333,-1.86666 v -9.33334 q 0,-4.64 -3.306666,-4.64 -1.866667,0 -2.56,1.22667 -0.64,1.22667 -0.64,3.46667 v 9.33333 q 0,1.28 -0.106667,1.86667 -0.05333,0.58666 -0.48,1.38666 -0.746667,1.44 -4.16,1.44 -3.360001,0 -4.106667,-1.49333 -0.373334,-0.8 -0.48,-1.38667 -0.05333,-0.64 -0.05333,-1.86666 v -9.33334 q 0,-4.64 -3.306666,-4.64 -3.200001,0 -3.200001,4.64 v 9.44 q 0,1.22667 -0.106666,1.86667 -0.05333,0.58667 -0.48,1.38667 -0.8,1.38666 -4.16,1.38666 -3.360001,0 -4.106667,-1.44 -0.373334,-0.8 -0.48,-1.38666 -0.05333,-0.58667 -0.05333,-1.86667 v -18.77333 q 0,-1.22667 0.05333,-1.81334 0.106666,-0.64 0.533333,-1.38666 0.8,-1.44 3.786667,-1.44 2.986667,0 3.893333,0.96 0.906667,0.96 0.906667,2.77333 z" />
      <path
         id="path1800"
         style="font-style:normal;font-variant:normal;font-weight:normal;font-stretch:normal;font-size:53.33333588px;font-family:'Fredoka One';-inkscape-font-specification:'Fredoka One';fill:#1a1a1a"
         d="m 73.783667,375.93837 q 0,-1.22667 0.05333,-1.81333 0.106667,-0.64 0.48,-1.44 0.746667,-1.38667 4.16,-1.38667 2.560001,0 3.626667,0.90667 0.906667,0.74666 0.96,2.29333 0.05333,0.53333 0.05333,1.54667 v 18.66666 q 0,1.22667 -0.106667,1.86667 -0.05333,0.58667 -0.48,1.38667 -0.693333,1.38666 -4.106667,1.38666 -3.36,0 -4.106667,-1.44 -0.373333,-0.8 -0.48,-1.38666 -0.05333,-0.58667 -0.05333,-1.86667 z m 8.746667,-9.86667 q -0.373333,0.74667 -1.386667,1.06667 -1.013333,0.32 -2.72,0.32 -1.653333,0 -2.666667,-0.32 -1.013333,-0.32 -1.44,-1.12 -0.373333,-0.8 -0.48,-1.38667 -0.05333,-0.64 -0.05333,-1.86666 0,-1.22667 0.05333,-1.81334 0.106667,-0.64 0.48,-1.38666 0.746667,-1.44 4.16,-1.44 3.360001,0 4.053334,1.44 0.426667,0.8 0.48,1.44 0.106667,0.58666 0.106667,1.81333 0,1.22667 -0.106667,1.86667 -0.05333,0.58666 -0.48,1.38666 z" />
      <path
         id="path1802"
         style="font-style:normal;font-variant:normal;font-weight:normal;font-stretch:normal;font-size:53.33333588px;font-family:'Fredoka One';-inkscape-font-specification:'Fredoka One';fill:#1a1a1a"
         d="m 96.556957,374.97837 q 2.506667,-3.78667 6.026663,-3.78667 5.44,0 8.10667,4.64 0.58667,-0.8 1.38667,-1.65333 0.85333,-0.90667 2.66666,-1.92 1.81334,-1.06667 3.73334,-1.06667 4.26667,0 7.14667,3.30667 2.88,3.25333 2.88,10.82667 v 9.33333 q 0,1.22667 -0.10667,1.86667 -0.0533,0.58666 -0.48,1.38666 -0.69333,1.44 -4.10667,1.44 -3.36,0 -4.10667,-1.49333 -0.37333,-0.8 -0.48,-1.38667 -0.0533,-0.64 -0.0533,-1.86666 v -9.33334 q 0,-4.64 -3.30667,-4.64 -1.86666,0 -2.56,1.22667 -0.64,1.22667 -0.64,3.46667 v 9.33333 q 0,1.28 -0.10666,1.86667 -0.0533,0.58666 -0.48,1.38666 -0.74667,1.44 -4.16,1.44 -3.36,0 -4.10667,-1.49333 -0.37333,-0.8 -0.48,-1.38667 -0.0533,-0.64 -0.0533,-1.86666 v -9.33334 q 0,-4.64 -3.306669,-4.64 -3.200001,0 -3.200001,4.64 v 9.44 q 0,1.22667 -0.106666,1.86667 -0.05333,0.58667 -0.48,1.38667 -0.8,1.38666 -4.16,1.38666 -3.360001,0 -4.106667,-1.44 -0.373334,-0.8 -0.48,-1.38666 -0.05333,-0.58667 -0.05333,-1.86667 v -18.77333 q 0,-1.22667 0.05333,-1.81334 0.106666,-0.64 0.533333,-1.38666 0.8,-1.44 3.786667,-1.44 2.986667,0 3.893333,0.96 0.906667,0.96 0.906667,2.77333 z" />
      <path
         id="path1804"
         style="font-style:normal;font-variant:normal;font-weight:normal;font-stretch:normal;font-size:53.33333588px;font-family:'Fredoka One';-inkscape-font-specification:'Fredoka One';fill:#1a1a1a"
         d="m 132.77028,375.93837 q 0,-1.22667 0.0533,-1.81333 0.10667,-0.64 0.48,-1.44 0.74667,-1.38667 4.16,-1.38667 2.56,0 3.62667,0.90667 0.90667,0.74666 0.96,2.29333 0.0533,0.53333 0.0533,1.54667 v 18.66666 q 0,1.22667 -0.10666,1.86667 -0.0533,0.58667 -0.48,1.38667 -0.69334,1.38666 -4.10667,1.38666 -3.36,0 -4.10667,-1.44 -0.37333,-0.8 -0.48,-1.38666 -0.0533,-0.58667 -0.0533,-1.86667 z m 8.74667,-9.86667 q -0.37334,0.74667 -1.38667,1.06667 -1.01333,0.32 -2.72,0.32 -1.65333,0 -2.66667,-0.32 -1.01333,-0.32 -1.44,-1.12 -0.37333,-0.8 -0.48,-1.38667 -0.0533,-0.64 -0.0533,-1.86666 0,-1.22667 0.0533,-1.81334 0.10667,-0.64 0.48,-1.38666 0.74667,-1.44 4.16,-1.44 3.36,0 4.05334,1.44 0.42666,0.8 0.48,1.44 0.10666,0.58666 0.10666,1.81333 0,1.22667 -0.10666,1.86667 -0.0533,0.58666 -0.48,1.38666 z" />
      <path
         id="path1806"
         style="font-style:normal;font-variant:normal;font-weight:normal;font-stretch:normal;font-size:53.33333588px;font-family:'Fredoka One';-inkscape-font-specification:'Fredoka One';fill:#1a1a1a"
         d="m 162.90358,385.2717 7.09333,5.86667 q 1.33333,1.12 1.65333,1.70667 0.37334,0.58666 0.37334,1.12 0,1.28 -1.65334,3.46666 -1.81333,2.24 -3.2,2.24 -1.17333,0 -3.25333,-1.54666 l -0.53333,-0.37334 q -1.22667,-1.01333 -3.78667,-3.52 -2.56,-2.56 -3.89333,-3.62666 v 4.10666 q 0,1.22667 -0.10667,1.86667 -0.0533,0.58667 -0.48,1.38667 -0.69333,1.38666 -4.10667,1.38666 -3.36,0 -4.10667,-1.44 -0.37333,-0.8 -0.48,-1.38666 -0.0533,-0.64 -0.0533,-1.86667 V 362.7117 q 0,-1.22666 0.0533,-1.81333 0.10667,-0.64 0.48,-1.44 0.74667,-1.44 4.16,-1.44 2.56001,0 3.62667,0.90667 0.90667,0.74666 0.96,2.34666 0.0533,0.48 0.0533,1.49334 v 16.90666 q 0.96,-0.8 2.88,-2.72 1.97333,-1.92 2.93333,-2.72 l 0.64,-0.42666 q 1.86667,-1.44 3.2,-1.44 1.33333,0 3.04,2.18666 1.76,2.13334 1.76,3.36 0,1.22667 -1.97333,2.88 z" />
      <path
         id="path1808"
         style="font-style:normal;font-variant:normal;font-weight:normal;font-stretch:normal;font-size:53.33333588px;font-family:'Fredoka One';-inkscape-font-specification:'Fredoka One';fill:#1a1a1a"
         d="m 172.55683,385.32504 q 0,-6.4 4.48,-10.56 4.48,-4.16 10.24,-4.16 5.76,0 10.18667,4.16 4.42666,4.10666 4.42666,10.50666 0,4.42667 -2.29333,7.89334 -2.29333,3.41333 -5.6,5.06666 -3.25333,1.6 -6.77333,1.6 -3.52,0 -6.82667,-1.70666 -3.30667,-1.76 -5.6,-5.12 -2.24,-3.41334 -2.24,-7.68 z m 11.14667,3.84 q 1.70666,1.28 3.46666,1.28 1.76,0 3.52,-1.33334 1.76,-1.33333 1.76,-3.94666 0,-2.61334 -1.65333,-3.89334 -1.65333,-1.28 -3.57333,-1.28 -1.92,0 -3.57334,1.33334 -1.65333,1.33333 -1.65333,3.94666 0,2.56 1.70667,3.89334 z" />
    </g>
  </g>
</svg>
